<svg id="Close" xmlns="http://www.w3.org/2000/svg" width="45.406" height="45.406" viewBox="0 0 45.406 45.406">
  <g id="c142_x">
    <path id="Path_6" data-name="Path 6" d="M22.7,0A22.7,22.7,0,1,0,45.406,22.7,22.7,22.7,0,0,0,22.7,0ZM32.46,28.851l-3.616,3.611s-5.72-6.137-6.147-6.137-6.142,6.137-6.142,6.137l-3.618-3.611s6.144-5.637,6.144-6.139-6.144-6.149-6.144-6.149l3.618-3.619s5.769,6.141,6.142,6.141,6.147-6.141,6.147-6.141l3.616,3.619s-6.146,5.72-6.146,6.149C26.315,23.119,32.46,28.851,32.46,28.851Z"/>
  </g>
</svg>
