<svg id="copy-paste" xmlns="http://www.w3.org/2000/svg" width="13.047" height="15.499" viewBox="0 0 13.047 15.499">
  <path id="Path_8" data-name="Path 8" d="M8.2,15.5H2.422A2.424,2.424,0,0,1,0,13.077v-8.2A2.424,2.424,0,0,1,2.422,2.452H8.2a2.424,2.424,0,0,1,2.422,2.422v8.2A2.424,2.424,0,0,1,8.2,15.5ZM2.422,3.663A1.212,1.212,0,0,0,1.211,4.874v8.2a1.212,1.212,0,0,0,1.211,1.211H8.2a1.212,1.212,0,0,0,1.211-1.211v-8.2A1.212,1.212,0,0,0,8.2,3.663Zm10.625,7.9V2.422A2.424,2.424,0,0,0,10.625,0H3.9a.605.605,0,1,0,0,1.211h6.72a1.212,1.212,0,0,1,1.211,1.211v9.142a.605.605,0,0,0,1.211,0Zm0,0"/>
</svg>
